<?xml version="1.0" encoding="UTF-8" standalone="no"?>
<!DOCTYPE svg PUBLIC "-//W3C//DTD SVG 1.1//EN"
 "http://www.w3.org/Graphics/SVG/1.1/DTD/svg11.dtd">
<!-- Generated by graphviz version 2.40.1 (20161225.0304)
 -->
<!-- Title: G Pages: 1 -->
<svg width="690pt" height="737pt"
 viewBox="0.00 0.00 690.00 736.60" xmlns="http://www.w3.org/2000/svg" xmlns:xlink="http://www.w3.org/1999/xlink">
<g id="graph0" class="graph" transform="scale(1 1) rotate(0) translate(4 732.6)">
<title>G</title>
<polygon fill="#ffffff" stroke="transparent" points="-4,4 -4,-732.6 686,-732.6 686,4 -4,4"/>
<g id="clust1" class="cluster">
<title>clusterdsa</title>
<polygon fill="none" stroke="#000000" points="8,-8 8,-720.6 674,-720.6 674,-8 8,-8"/>
<text text-anchor="middle" x="341" y="-704" font-family="Times,serif" font-size="14.00" fill="#000000">Piedmont University&#39;s</text>
<text text-anchor="middle" x="341" y="-687.2" font-family="Times,serif" font-size="14.00" fill="#000000">Computer Science Track</text>
<text text-anchor="middle" x="341" y="-670.4" font-family="Times,serif" font-size="14.00" fill="#000000">AY22&#45;23</text>
</g>
<g id="clust2" class="cluster">
<title>clusterrequired</title>
<polygon fill="none" stroke="#ffffff" points="16,-16 16,-654.2 666,-654.2 666,-16 16,-16"/>
</g>
<!-- CSCI1301 -->
<g id="node1" class="node">
<title>CSCI1301</title>
<polygon fill="none" stroke="#000000" points="362.6802,-410.9 362.6802,-452.5 523.3198,-452.5 523.3198,-410.9 362.6802,-410.9"/>
<text text-anchor="middle" x="443" y="-435.9" font-family="Sans serif" font-size="14.00" fill="#000000">CSCI 1301</text>
<text text-anchor="middle" x="443" y="-419.1" font-family="Sans serif" font-size="14.00" fill="#000000">Programming Principles I</text>
</g>
<!-- CSCI1302 -->
<g id="node2" class="node">
<title>CSCI1302</title>
<polygon fill="none" stroke="#000000" points="360.3499,-314.3 360.3499,-355.9 525.6501,-355.9 525.6501,-314.3 360.3499,-314.3"/>
<text text-anchor="middle" x="443" y="-339.3" font-family="Sans serif" font-size="14.00" fill="#000000">CSCI 1302</text>
<text text-anchor="middle" x="443" y="-322.5" font-family="Sans serif" font-size="14.00" fill="#000000">Programming Principles II</text>
</g>
<!-- CSCI1301&#45;&gt;CSCI1302 -->
<g id="edge1" class="edge">
<title>CSCI1301&#45;&gt;CSCI1302</title>
<path fill="none" stroke="#000000" d="M443,-410.7392C443,-397.7008 443,-380.6993 443,-366.1181"/>
<polygon fill="#000000" stroke="#000000" points="446.5001,-366.0198 443,-356.0199 439.5001,-366.0199 446.5001,-366.0198"/>
</g>
<!-- CSCI3300 -->
<g id="node3" class="node">
<title>CSCI3300</title>
<polygon fill="none" stroke="#000000" points="179.974,-217.7 179.974,-259.3 374.026,-259.3 374.026,-217.7 179.974,-217.7"/>
<text text-anchor="middle" x="277" y="-242.7" font-family="Sans serif" font-size="14.00" fill="#000000">CSCI 3300</text>
<text text-anchor="middle" x="277" y="-225.9" font-family="Sans serif" font-size="14.00" fill="#000000">Database Management Systems</text>
</g>
<!-- CSCI1302&#45;&gt;CSCI3300 -->
<g id="edge2" class="edge">
<title>CSCI1302&#45;&gt;CSCI3300</title>
<path fill="none" stroke="#000000" d="M406.9805,-314.1392C381.9646,-299.5818 348.4589,-280.0839 321.7314,-264.5305"/>
<polygon fill="#000000" stroke="#000000" points="323.3527,-261.4245 312.9492,-259.4199 319.8319,-267.4746 323.3527,-261.4245"/>
</g>
<!-- CSCI2900 -->
<g id="node4" class="node">
<title>CSCI2900</title>
<polygon fill="none" stroke="#000000" points="391.6574,-217.7 391.6574,-259.3 494.3426,-259.3 494.3426,-217.7 391.6574,-217.7"/>
<text text-anchor="middle" x="443" y="-242.7" font-family="Sans serif" font-size="14.00" fill="#000000">CSCI 2900</text>
<text text-anchor="middle" x="443" y="-225.9" font-family="Sans serif" font-size="14.00" fill="#000000">Data Structures</text>
</g>
<!-- CSCI1302&#45;&gt;CSCI2900 -->
<g id="edge3" class="edge">
<title>CSCI1302&#45;&gt;CSCI2900</title>
<path fill="none" stroke="#000000" d="M443,-314.1392C443,-301.1008 443,-284.0993 443,-269.5181"/>
<polygon fill="#000000" stroke="#000000" points="446.5001,-269.4198 443,-259.4199 439.5001,-269.4199 446.5001,-269.4198"/>
</g>
<!-- CSCI3400 -->
<g id="node6" class="node">
<title>CSCI3400</title>
<polygon fill="none" stroke="#000000" points="512.2738,-217.7 512.2738,-259.3 657.7262,-259.3 657.7262,-217.7 512.2738,-217.7"/>
<text text-anchor="middle" x="585" y="-242.7" font-family="Sans serif" font-size="14.00" fill="#000000">CSCI 3400</text>
<text text-anchor="middle" x="585" y="-225.9" font-family="Sans serif" font-size="14.00" fill="#000000">Software Development</text>
</g>
<!-- CSCI1302&#45;&gt;CSCI3400 -->
<g id="edge4" class="edge">
<title>CSCI1302&#45;&gt;CSCI3400</title>
<path fill="none" stroke="#000000" d="M473.8119,-314.1392C494.9319,-299.7717 523.126,-280.5917 545.8382,-265.1411"/>
<polygon fill="#000000" stroke="#000000" points="547.9487,-267.9385 554.2482,-259.4199 544.0114,-262.1507 547.9487,-267.9385"/>
</g>
<!-- CSCI4200 -->
<g id="node5" class="node">
<title>CSCI4200</title>
<polygon fill="none" stroke="#000000" points="219.5894,-121.1 219.5894,-162.7 346.4106,-162.7 346.4106,-121.1 219.5894,-121.1"/>
<text text-anchor="middle" x="283" y="-146.1" font-family="Sans serif" font-size="14.00" fill="#000000">CSCI 4200</text>
<text text-anchor="middle" x="283" y="-129.3" font-family="Sans serif" font-size="14.00" fill="#000000">Algorithm Analysis</text>
</g>
<!-- CSCI2900&#45;&gt;CSCI4200 -->
<g id="edge5" class="edge">
<title>CSCI2900&#45;&gt;CSCI4200</title>
<path fill="none" stroke="#000000" d="M408.2824,-217.5392C384.2755,-203.0451 352.1568,-183.6534 326.451,-168.1336"/>
<polygon fill="#000000" stroke="#000000" points="328.0196,-164.9922 317.6499,-162.8199 324.4016,-170.9847 328.0196,-164.9922"/>
</g>
<!-- CSCI4000 -->
<g id="node7" class="node">
<title>CSCI4000</title>
<polygon fill="none" stroke="#000000" points="364.4344,-121.1 364.4344,-162.7 521.5656,-162.7 521.5656,-121.1 364.4344,-121.1"/>
<text text-anchor="middle" x="443" y="-146.1" font-family="Sans serif" font-size="14.00" fill="#000000">CSCI 4000</text>
<text text-anchor="middle" x="443" y="-129.3" font-family="Sans serif" font-size="14.00" fill="#000000">Programming Languages</text>
</g>
<!-- CSCI2900&#45;&gt;CSCI4000 -->
<g id="edge6" class="edge">
<title>CSCI2900&#45;&gt;CSCI4000</title>
<path fill="none" stroke="#000000" d="M443,-217.5392C443,-204.5008 443,-187.4993 443,-172.9181"/>
<polygon fill="#000000" stroke="#000000" points="446.5001,-172.8198 443,-162.8199 439.5001,-172.8199 446.5001,-172.8198"/>
</g>
<!-- CSCI4950 -->
<g id="node8" class="node">
<title>CSCI4950</title>
<polygon fill="none" stroke="#000000" points="308.9253,-24.5 308.9253,-66.1 417.0747,-66.1 417.0747,-24.5 308.9253,-24.5"/>
<text text-anchor="middle" x="363" y="-49.5" font-family="Sans serif" font-size="14.00" fill="#000000">CSCI 4950</text>
<text text-anchor="middle" x="363" y="-32.7" font-family="Sans serif" font-size="14.00" fill="#000000">Senior Capstone</text>
</g>
<!-- CSCI4200&#45;&gt;CSCI4950 -->
<!-- CSCI4000&#45;&gt;CSCI4950 -->
<!-- MATH1005 -->
<g id="node9" class="node">
<title>MATH1005</title>
<polygon fill="none" stroke="#808080" points="60.3355,-604.1 60.3355,-645.7 195.6645,-645.7 195.6645,-604.1 60.3355,-604.1"/>
<text text-anchor="middle" x="128" y="-629.1" font-family="Sans serif" font-size="14.00" fill="#808080">MATH 1005</text>
<text text-anchor="middle" x="128" y="-612.3" font-family="Sans serif" font-size="14.00" fill="#808080">Intermediate Algebra</text>
</g>
<!-- MATH1113 -->
<g id="node10" class="node">
<title>MATH1113</title>
<polygon fill="none" stroke="#808080" points="83.6448,-507.5 83.6448,-549.1 172.3552,-549.1 172.3552,-507.5 83.6448,-507.5"/>
<text text-anchor="middle" x="128" y="-532.5" font-family="Sans serif" font-size="14.00" fill="#808080">MATH 1113</text>
<text text-anchor="middle" x="128" y="-515.7" font-family="Sans serif" font-size="14.00" fill="#808080">Precalculus</text>
</g>
<!-- MATH1005&#45;&gt;MATH1113 -->
<g id="edge8" class="edge">
<title>MATH1005&#45;&gt;MATH1113</title>
<path fill="none" stroke="#808080" d="M128,-603.9392C128,-590.9008 128,-573.8993 128,-559.3181"/>
<polygon fill="#808080" stroke="#808080" points="131.5001,-559.2198 128,-549.2199 124.5001,-559.2199 131.5001,-559.2198"/>
</g>
<!-- MATH2450 -->
<g id="node11" class="node">
<title>MATH2450</title>
<polygon fill="none" stroke="#000000" points="83.6448,-410.9 83.6448,-452.5 172.3552,-452.5 172.3552,-410.9 83.6448,-410.9"/>
<text text-anchor="middle" x="128" y="-435.9" font-family="Sans serif" font-size="14.00" fill="#000000">MATH 2450</text>
<text text-anchor="middle" x="128" y="-419.1" font-family="Sans serif" font-size="14.00" fill="#000000">Calculus I</text>
</g>
<!-- MATH1113&#45;&gt;MATH2450 -->
<g id="edge11" class="edge">
<title>MATH1113&#45;&gt;MATH2450</title>
<path fill="none" stroke="#808080" d="M128,-507.3392C128,-494.3008 128,-477.2993 128,-462.7181"/>
<polygon fill="#808080" stroke="#808080" points="131.5001,-462.6198 128,-452.6199 124.5001,-462.6199 131.5001,-462.6198"/>
</g>
<!-- MATH2450L -->
<g id="node12" class="node">
<title>MATH2450L</title>
<polygon fill="none" stroke="#000000" points="40.676,-314.3 40.676,-355.9 145.324,-355.9 145.324,-314.3 40.676,-314.3"/>
<text text-anchor="middle" x="93" y="-339.3" font-family="Sans serif" font-size="14.00" fill="#000000">MATH 2450</text>
<text text-anchor="middle" x="93" y="-322.5" font-family="Sans serif" font-size="14.00" fill="#000000">Calculus I LAB</text>
</g>
<!-- MATH2450&#45;&gt;MATH2450L -->
<g id="edge9" class="edge">
<title>MATH2450&#45;&gt;MATH2450L</title>
<path fill="none" stroke="#000000" d="M120.4055,-410.7392C114.5348,-394.5362 106.4466,-372.2126 100.5797,-356.0199"/>
</g>
<!-- MATH2300 -->
<g id="node13" class="node">
<title>MATH2300</title>
<polygon fill="none" stroke="#000000" points="23.7766,-217.7 23.7766,-259.3 162.2234,-259.3 162.2234,-217.7 23.7766,-217.7"/>
<text text-anchor="middle" x="93" y="-242.7" font-family="Sans serif" font-size="14.00" fill="#000000">MATH 2300</text>
<text text-anchor="middle" x="93" y="-225.9" font-family="Sans serif" font-size="14.00" fill="#000000">Discrete Mathematics</text>
</g>
<!-- MATH2450&#45;&gt;MATH2300 -->
<g id="edge12" class="edge">
<title>MATH2450&#45;&gt;MATH2300</title>
<path fill="none" stroke="#000000" d="M139.4803,-410.8222C151.0622,-386.9146 165.6877,-346.7953 154,-313.8 147.7545,-296.1683 135.4284,-279.6489 123.4812,-266.6011"/>
<polygon fill="#000000" stroke="#000000" points="125.979,-264.1489 116.5395,-259.3377 120.9185,-268.9853 125.979,-264.1489"/>
</g>
<!-- MATH2450L&#45;&gt;MATH2300 -->
<g id="edge10" class="edge">
<title>MATH2450L&#45;&gt;MATH2300</title>
<path fill="none" stroke="#000000" d="M93,-314.1392C93,-301.1008 93,-284.0993 93,-269.5181"/>
<polygon fill="#000000" stroke="#000000" points="96.5001,-269.4198 93,-259.4199 89.5001,-269.4199 96.5001,-269.4198"/>
</g>
<!-- MATH2300&#45;&gt;CSCI4200 -->
<g id="edge7" class="edge">
<title>MATH2300&#45;&gt;CSCI4200</title>
<path fill="none" stroke="#000000" d="M134.2272,-217.5392C163.1088,-202.8552 201.8773,-183.1445 232.5976,-167.5256"/>
<polygon fill="#000000" stroke="#000000" points="234.5255,-170.4719 241.8533,-162.8199 231.353,-164.2321 234.5255,-170.4719"/>
</g>
</g>
</svg>
